<?xml version="1.0" standalone="no"?>
<!DOCTYPE svg PUBLIC "-//W3C//DTD SVG 20010904//EN"
 "http://www.w3.org/TR/2001/REC-SVG-20010904/DTD/svg10.dtd">
<svg version="1.0" xmlns="http://www.w3.org/2000/svg"
 width="512.000000pt" height="512.000000pt" viewBox="0 0 512.000000 512.000000"
 preserveAspectRatio="xMidYMid meet">
<metadata>
Created by potrace 1.11, written by Peter Selinger 2001-2013
</metadata>
<g transform="translate(0.000000,512.000000) scale(0.100000,-0.100000)"
fill="#000000" stroke="none">
<path d="M2350 5104 c-492 -45 -950 -223 -1344 -522 -130 -98 -370 -338 -468
-468 -268 -353 -436 -750 -505 -1194 -13 -87 -17 -175 -17 -360 0 -185 4 -273
17 -360 69 -444 237 -841 505 -1194 98 -130 338 -370 468 -468 353 -268 750
-436 1194 -505 162 -25 558 -25 720 0 444 69 841 237 1194 505 130 98 370 338
468 468 268 353 436 750 505 1194 13 87 17 175 17 360 0 185 -4 273 -17 360
-69 444 -237 841 -505 1194 -98 130 -338 370 -468 468 -350 266 -751 437
-1184 503 -101 16 -480 28 -580 19z m425 -659 c25 -24 25 -26 25 -213 0 -257
21 -237 -240 -237 -261 0 -240 -20 -240 237 0 255 -17 238 240 238 189 0 191
0 215 -25z m157 -649 c388 -70 693 -354 799 -746 20 -72 23 -109 23 -245 0
-136 -3 -173 -23 -245 -106 -392 -411 -676 -799 -746 -51 -9 -160 -13 -326
-14 -218 0 -252 2 -268 17 -17 15 -18 47 -18 615 l0 598 240 0 240 0 0 -364
c0 -341 1 -365 19 -387 18 -22 21 -22 71 -11 194 45 357 212 405 413 69 294
-118 593 -416 664 -50 11 -131 15 -366 15 -290 0 -304 -1 -323 -20 -20 -20
-20 -33 -20 -1272 0 -1150 -1 -1253 -17 -1270 -15 -16 -35 -18 -224 -18 -175
0 -210 2 -223 16 -14 14 -16 163 -16 1496 0 1364 1 1483 17 1500 15 17 46 18
582 18 436 -1 584 -4 643 -14z"/>
</g>
</svg>
